name Walk5.mot
datacolumns 19
datarows 20
range 2.89300000 2.91200000
endheader

                time	   L_ground_force_vx	   L_ground_force_vy	   L_ground_force_vz	   L_ground_force_px	   L_ground_force_py	   L_ground_force_pz	   R_ground_force_vx	   R_ground_force_vy	   R_ground_force_vz	   R_ground_force_px	   R_ground_force_py	   R_ground_force_pz	   L_ground_torque_x	   L_ground_torque_y	   L_ground_torque_z	   R_ground_torque_x	   R_ground_torque_y	   R_ground_torque_z	
          2.89300000	         19.11040123	        971.62256773	         80.40292707	         -0.33332973	          0.00000000	         -0.09225850	          0.00000000	          0.00000000	          0.00000000	          0.00000000	          0.00000000	          0.00000000	          0.00000000	          0.52247002	          0.00000000	          0.00000000	          0.00000000	          0.00000000	
          2.89400000	         19.25360178	        971.21126672	         80.65305923	         -0.33287800	          0.00000000	         -0.09225456	          0.00000000	          0.00000000	          0.00000000	          0.00000000	          0.00000000	          0.00000000	          0.00000000	          0.51535161	          0.00000000	          0.00000000	          0.00000000	          0.00000000	
          2.89500000	         19.48249153	        970.71853857	         80.83762105	         -0.33239840	          0.00000000	         -0.09230423	          0.00000000	          0.00000000	          0.00000000	          0.00000000	          0.00000000	          0.00000000	          0.00000000	          0.51211997	          0.00000000	          0.00000000	          0.00000000	          0.00000000	
          2.89600000	         19.80002042	        970.23316903	         80.94398866	         -0.33188870	          0.00000000	         -0.09239379	          0.00000000	          0.00000000	          0.00000000	          0.00000000	          0.00000000	          0.00000000	          0.00000000	          0.52030411	          0.00000000	          0.00000000	          0.00000000	          0.00000000	
          2.89700000	         20.16593827	        969.82252125	         80.97709651	         -0.33135720	          0.00000000	         -0.09249931	          0.00000000	          0.00000000	          0.00000000	          0.00000000	          0.00000000	          0.00000000	          0.00000000	          0.54491675	          0.00000000	          0.00000000	          0.00000000	          0.00000000	
          2.89800000	         20.50917293	        969.48757772	         80.96042597	         -0.33082223	          0.00000000	         -0.09260239	          0.00000000	          0.00000000	          0.00000000	          0.00000000	          0.00000000	          0.00000000	          0.00000000	          0.58606291	          0.00000000	          0.00000000	          0.00000000	          0.00000000	
          2.89900000	         20.76431362	        969.18386097	         80.93572030	         -0.33030723	          0.00000000	         -0.09268894	          0.00000000	          0.00000000	          0.00000000	          0.00000000	          0.00000000	          0.00000000	          0.00000000	          0.63894717	          0.00000000	          0.00000000	          0.00000000	          0.00000000	
          2.90000000	         20.90615518	        968.87397348	         80.95461887	         -0.32983035	          0.00000000	         -0.09274687	          0.00000000	          0.00000000	          0.00000000	          0.00000000	          0.00000000	          0.00000000	          0.00000000	          0.69335890	          0.00000000	          0.00000000	          0.00000000	          0.00000000	
          2.90100000	         20.96087198	        968.54960504	         81.05917458	         -0.32939218	          0.00000000	         -0.09276696	          0.00000000	          0.00000000	          0.00000000	          0.00000000	          0.00000000	          0.00000000	          0.00000000	          0.73271538	          0.00000000	          0.00000000	          0.00000000	          0.00000000	
          2.90200000	         20.99229471	        968.22765713	         81.25776899	         -0.32897233	          0.00000000	         -0.09274205	          0.00000000	          0.00000000	          0.00000000	          0.00000000	          0.00000000	          0.00000000	          0.00000000	          0.73987853	          0.00000000	          0.00000000	          0.00000000	          0.00000000	
          2.90300000	         21.07257768	        967.93362198	         81.51759499	         -0.32854125	          0.00000000	         -0.09267110	          0.00000000	          0.00000000	          0.00000000	          0.00000000	          0.00000000	          0.00000000	          0.00000000	          0.70882079	          0.00000000	          0.00000000	          0.00000000	          0.00000000	
          2.90400000	         21.24944014	        967.68377777	         81.78186203	         -0.32807717	          0.00000000	         -0.09256458	          0.00000000	          0.00000000	          0.00000000	          0.00000000	          0.00000000	          0.00000000	          0.00000000	          0.65146957	          0.00000000	          0.00000000	          0.00000000	          0.00000000	
          2.90500000	         21.52281237	        967.47896277	         81.99715479	         -0.32757537	          0.00000000	         -0.09244685	          0.00000000	          0.00000000	          0.00000000	          0.00000000	          0.00000000	          0.00000000	          0.00000000	          0.59328592	          0.00000000	          0.00000000	          0.00000000	          0.00000000	
          2.90600000	         21.84810446	        967.30324877	         82.13298292	         -0.32704626	          0.00000000	         -0.09235183	          0.00000000	          0.00000000	          0.00000000	          0.00000000	          0.00000000	          0.00000000	          0.00000000	          0.56043070	          0.00000000	          0.00000000	          0.00000000	          0.00000000	
          2.90700000	         22.16536843	        967.13794006	         82.18776331	         -0.32650465	          0.00000000	         -0.09230550	          0.00000000	          0.00000000	          0.00000000	          0.00000000	          0.00000000	          0.00000000	          0.00000000	          0.56718519	          0.00000000	          0.00000000	          0.00000000	          0.00000000	
          2.90800000	         22.42881820	        966.99334185	         82.18832738	         -0.32596440	          0.00000000	         -0.09230633	          0.00000000	          0.00000000	          0.00000000	          0.00000000	          0.00000000	          0.00000000	          0.00000000	          0.61056197	          0.00000000	          0.00000000	          0.00000000	          0.00000000	
          2.90900000	         22.61974248	        966.90127558	         82.17923940	         -0.32544126	          0.00000000	         -0.09231840	          0.00000000	          0.00000000	          0.00000000	          0.00000000	          0.00000000	          0.00000000	          0.00000000	          0.67394745	          0.00000000	          0.00000000	          0.00000000	          0.00000000	
          2.91000000	         22.74748026	        966.85237055	         82.19992933	         -0.32494852	          0.00000000	         -0.09229518	          0.00000000	          0.00000000	          0.00000000	          0.00000000	          0.00000000	          0.00000000	          0.00000000	          0.73620962	          0.00000000	          0.00000000	          0.00000000	          0.00000000	
          2.91100000	         22.84983331	        966.77826898	         82.27025981	         -0.32448807	          0.00000000	         -0.09222023	          0.00000000	          0.00000000	          0.00000000	          0.00000000	          0.00000000	          0.00000000	          0.00000000	          0.77820369	          0.00000000	          0.00000000	          0.00000000	          0.00000000	
          2.91200000	         22.98941874	        966.61682393	         82.39050777	         -0.32405224	          0.00000000	         -0.09211509	          0.00000000	          0.00000000	          0.00000000	          0.00000000	          0.00000000	          0.00000000	          0.00000000	          0.78553479	          0.00000000	          0.00000000	          0.00000000	          0.00000000	
